<svg xmlns="http://www.w3.org/2000/svg" viewBox="0 0 64 64"><rect width="64" height="64" rx="14" fill="#b3261e"/><path d="M9 18c7-3 15-3 23 1v33c-8-4-16-4-23-1z" fill="#fbf7ee"/><path d="M55 18c-7-3-15-3-23 1v33c8-4 16-4 23-1z" fill="#efe6d3"/><rect x="13" y="25" width="15" height="2.6" rx="1.3" fill="#1d1d1b" opacity=".4"/><rect x="12" y="31" width="17" height="5" rx="1.5" fill="#ffd84d"/><rect x="13" y="32.2" width="15" height="2.6" rx="1.3" fill="#1d1d1b" opacity=".75"/><rect x="13" y="39" width="12" height="2.6" rx="1.3" fill="#1d1d1b" opacity=".4"/><rect x="36" y="25" width="15" height="2.6" rx="1.3" fill="#1d1d1b" opacity=".4"/><rect x="36" y="32" width="15" height="2.6" rx="1.3" fill="#1d1d1b" opacity=".4"/><rect x="36" y="39" width="10" height="2.6" rx="1.3" fill="#1d1d1b" opacity=".4"/></svg>
